<?xml version="1.0" standalone="no"?>
<!DOCTYPE svg PUBLIC "-//W3C//DTD SVG 20010904//EN"
 "http://www.w3.org/TR/2001/REC-SVG-20010904/DTD/svg10.dtd">
<svg version="1.0" xmlns="http://www.w3.org/2000/svg"
 width="464.000000pt" height="464.000000pt" viewBox="0 0 464.000000 464.000000"
 preserveAspectRatio="xMidYMid meet">
<metadata>
Created by potrace 1.14, written by Peter Selinger 2001-2017
</metadata>
<g transform="translate(0.000000,464.000000) scale(0.100000,-0.100000)"
fill="#000000" stroke="none">
<path d="M2165 4592 c-23 -11 -49 -31 -58 -45 -21 -32 -22 -95 -2 -124 13 -19
12 -26 -17 -78 -36 -67 -50 -183 -28 -225 11 -21 10 -25 -14 -42 l-26 -19 54
-77 c30 -42 59 -78 65 -80 6 -2 14 10 17 27 8 40 17 45 38 22 17 -18 17 -21 1
-45 -16 -24 -16 -26 0 -26 56 0 79 50 58 130 -18 71 -12 95 42 160 25 30 45
61 45 68 0 23 63 52 113 52 60 0 101 -20 117 -59 7 -17 16 -28 21 -25 15 9 10
58 -7 83 -9 13 -18 40 -19 61 -6 73 -45 100 -145 100 -46 0 -46 0 -58 45 -26
99 -108 139 -197 97z"/>
<path d="M2733 4526 c-63 -21 -100 -52 -119 -101 -30 -80 10 -119 97 -97 36 9
40 8 34 -6 -19 -47 -17 -54 30 -102 l48 -49 26 18 c47 32 61 33 71 5 6 -14 10
-43 10 -64 0 -32 5 -41 33 -59 l32 -20 17 22 c10 12 38 62 63 110 75 146 59
205 -83 301 -67 46 -76 49 -144 52 -44 2 -90 -2 -115 -10z"/>
<path d="M2973 3966 c-99 -54 -159 -94 -195 -133 -17 -18 -63 -124 -131 -298
-139 -357 -132 -338 -121 -378 5 -19 83 -156 173 -304 115 -188 172 -274 192
-286 24 -13 29 -14 29 -2 0 17 4 18 50 6 19 -5 47 -12 61 -15 26 -6 27 -7 22
-73 -8 -122 -43 -183 -104 -183 -27 0 -69 39 -69 64 0 6 -16 24 -35 39 -19 15
-45 47 -56 70 -22 43 -227 327 -237 327 -3 0 -2 -46 2 -102 6 -92 18 -139 106
-423 195 -632 286 -947 360 -1247 27 -109 52 -203 56 -210 51 -85 208 -297
216 -292 6 4 -7 -26 -28 -66 -32 -58 -49 -79 -92 -107 -45 -29 -53 -39 -49
-59 l4 -24 -108 0 -109 0 0 46 c0 68 -11 81 -62 78 -44 -3 -350 -103 -356
-116 -2 -5 -18 -8 -35 -9 -18 0 -41 -4 -52 -9 -11 -5 469 -9 1108 -9 740 -1
1127 2 1127 9 0 6 -249 11 -712 12 l-712 3 140 63 c76 35 145 70 153 77 18 18
6 66 -25 100 -23 24 -25 25 -46 11 -29 -21 -77 -20 -107 0 l-23 16 57 58 c40
40 56 63 52 75 -4 8 -99 179 -212 379 l-205 364 21 203 c21 200 22 206 65 299
85 186 110 367 69 508 -14 50 -15 66 -6 71 10 6 11 60 6 232 -6 192 -4 251 15
414 41 376 44 421 31 517 -16 121 -38 174 -138 335 -6 10 -29 1 -90 -31z"/>
<path d="M2369 3898 c-3 -97 13 -142 86 -243 25 -35 49 -75 55 -89 5 -14 14
-26 19 -26 11 0 141 225 141 245 0 3 -15 5 -33 5 -57 0 -92 16 -180 85 l-87
66 -1 -43z"/>
<path d="M0 260 c0 -6 127 -10 361 -10 237 0 358 3 354 10 -8 14 -715 14 -715
0z"/>
</g>
</svg>
